<?xml version="1.0" encoding="iso-8859-1"?>
<!-- Generator: Adobe Illustrator 18.1.1, SVG Export Plug-In . SVG Version: 6.00 Build 0)  -->
<svg version="1.1" id="Layer_1" xmlns="http://www.w3.org/2000/svg" xmlns:xlink="http://www.w3.org/1999/xlink" x="0px" y="0px"
	 width="15.786px" height="18.77px" viewBox="0 0 15.786 18.77" style="enable-background:new 0 0 15.786 18.77;"
	 xml:space="preserve">
<g>
	<path style="fill:#CCCCCC;" d="M7.06,16.55c0-0.407-0.33-0.751-0.736-0.751H1.813c-0.194,0-0.352-0.158-0.352-0.352V1.818
		c0-0.194,0.158-0.352,0.352-0.352h4.965c0.486,0,0.881,0.395,0.88,0.881L7.657,5.269c0,0.244,0.198,0.442,0.442,0.441l3.026-0.013
		c0.39-0.002,0.707,0.314,0.707,0.704v3.9c0,0.407,0.345,0.737,0.751,0.737c0.407,0,0.737-0.33,0.737-0.737V6.06
		c0-0.236-0.094-0.463-0.261-0.63L7.931,0.302C7.738,0.109,7.475,0,7.202,0H1.098C0.492,0,0,0.492,0,1.098v15.09
		c0,0.606,0.492,1.098,1.098,1.098h5.226C6.73,17.286,7.06,16.956,7.06,16.55z"/>
</g>
<g>
	<path style="fill:#FFFFFF;" d="M10.473,8.643c-2.658,0-4.814,2.155-4.814,4.813s2.155,4.814,4.814,4.814s4.813-2.155,4.813-4.814
		S13.131,8.643,10.473,8.643z"/>
	<path style="fill:#1473A3;" d="M10.473,18.77c-2.93,0-5.313-2.384-5.313-5.313s2.384-5.313,5.313-5.313s5.313,2.384,5.313,5.313
		S13.402,18.77,10.473,18.77z M10.473,9.143c-2.379,0-4.313,1.935-4.313,4.313s1.935,4.313,4.313,4.313s4.313-1.935,4.313-4.313
		S12.852,9.143,10.473,9.143z"/>
</g>
<g>
	<path style="fill:#1473A3;" d="M9.635,13.992H7.878c-0.292,0-0.528-0.236-0.528-0.528c0-0.291,0.236-0.538,0.528-0.538h1.758h1.676
		h1.758c0.292,0,0.528,0.236,0.528,0.528c0,0.291-0.236,0.538-0.528,0.538h-1.758H9.635z"/>
</g>
</svg>
