<svg xmlns="http://www.w3.org/2000/svg" viewBox="0 0 121.5 27.4" enable-background="new 0 0 121.5 27.4"><g fill="#fff"><path d="M0 0h12.6v2H2.1v7h7.8v2.1H2.1v8.2h11.5v2.1H0V0zM19.2 8.6c1.8-1.2 3-1.9 3.8-2.2s1.6-.5 2.3-.5c.8 0 1.6.2 2.2.7.6.4 1.1 1.1 1.4 2 1.8-1.2 3-1.9 3.8-2.2.8-.3 1.6-.5 2.4-.5 1.1 0 1.9.3 2.5.9.9.8 1.3 1.9 1.3 3.3v11.3h-2.1V10.7c0-.9-.2-1.6-.7-2.1-.5-.5-1-.8-1.7-.8-.6 0-1.3.2-2.1.5s-1.9 1-3.4 2.1v11H27V10.7c0-.9-.2-1.6-.7-2.1-.5-.5-1-.8-1.6-.8-.6 0-1.4.2-2.2.5-.8.3-1.9 1-3.4 2.1v11H17V6.2h2.1v2.4zM54.5 18c-.9 1.2-1.9 2.2-3 2.8-1.1.6-2.1.9-3.3.9-1.8 0-3.3-.7-4.6-2.1-1.3-1.4-1.9-3.4-1.9-5.9 0-2.4.6-4.3 1.9-5.7 1.3-1.4 2.7-2.1 4.4-2.1 1.1 0 2.2.3 3.3 1 1 .7 1.8 1.6 2.3 2.7s.8 2.6.8 4.4H43.9c0 1.2.2 2.2.5 3 .4 1 1 1.8 1.7 2.2.7.5 1.4.7 2.1.7 1.7 0 3.2-1 4.7-3.1l1.6 1.2zm-2.1-5.9c-.2-1.4-.6-2.5-1.5-3.4-.8-.8-1.7-1.2-2.8-1.2-1.3 0-2.3.5-3 1.4-.8 1-1.2 2-1.2 3.1h8.5zM60.1 9.6c.8-1.3 1.7-2.2 2.7-2.8.9-.6 2-.9 3.2-.9h.6l-.3 2.3h-.7c-.5 0-1.2.1-1.8.4-.7.3-1.3.7-1.8 1.4-.5.6-.9 1.4-1.2 2.3-.3.9-.5 1.7-.5 2.4v6.7h-2.1V6.2h2.1v3.4zM69.6 15.3c-.7-.6-1.2-1.2-1.5-1.8s-.5-1.3-.5-2.2c0-1.6.6-2.9 1.7-3.9s2.6-1.5 4.5-1.5c.8 0 1.5.1 2.2.3.7.2 1.3.5 2 .9 1-.6 2.3-.9 3.8-.9V8h-.7c-.9 0-1.6.1-2.1.3.5.8.7 1.8.7 2.8 0 1.6-.5 2.9-1.6 4s-2.6 1.6-4.5 1.6c-.6 0-1.3-.1-2-.2-.4-.1-.6-.1-.8-.1-.4 0-.8.1-1 .3-.2.2-.4.5-.4.8 0 .3.2.6.6.8.2.1.8.2 1.9.2 2.6.1 4.5.3 5.7.7 1.2.4 2.1.9 2.6 1.6s.7 1.4.7 2.2c0 .8-.3 1.6-.8 2.2s-1.3 1.2-2.4 1.5-2.2.5-3.3.5c-1.6 0-3.1-.2-4.5-.7-1-.3-1.8-.9-2.4-1.6-.5-.7-.8-1.4-.8-2.2 0-.6.2-1.1.5-1.7.3-.5.8-1 1.4-1.5-.5-.3-.8-.6-1-.9-.2-.3-.3-.6-.3-1 0-.5.2-1 .5-1.4.5-.1 1-.5 1.8-.9zm.9 5.2c-.6.4-1.1.8-1.5 1.2-.3.4-.5.8-.5 1.3 0 .6.3 1.1 1 1.6 1 .7 2.5 1.1 4.5 1.1s3.3-.3 4.2-.9c.6-.4.9-.9.9-1.5 0-.8-.5-1.3-1.6-1.7-1-.6-3.3-.9-7-1.1zm3.2-5.7c1.3 0 2.3-.4 3.1-1.1.8-.7 1.2-1.6 1.2-2.6 0-.9-.4-1.8-1.1-2.4-.7-.7-1.7-1-3-1-1.4 0-2.4.3-3.2 1-.7.7-1.1 1.5-1.1 2.5s.4 1.9 1.1 2.6c.8.7 1.8 1 3 1zM95.9 18c-.9 1.2-1.9 2.2-3 2.8-1.1.6-2.1.9-3.3.9-1.8 0-3.3-.7-4.6-2.1-1.3-1.4-1.9-3.4-1.9-5.9 0-2.4.6-4.3 1.9-5.7 1.3-1.4 2.7-2.1 4.4-2.1 1.1 0 2.2.3 3.3 1 1 .7 1.8 1.6 2.3 2.7s.8 2.6.8 4.4H85.3c0 1.2.2 2.2.5 3 .4 1 1 1.8 1.7 2.2.7.5 1.4.7 2.1.7 1.7 0 3.2-1 4.7-3.1l1.6 1.2zm-2.1-5.9c-.2-1.4-.6-2.5-1.5-3.4-.8-.8-1.7-1.2-2.8-1.2-1.3 0-2.3.5-3 1.4-.8 1-1.2 2-1.2 3.1h8.5zM100.9 8c1.1-.7 2.2-1.2 3.2-1.5 1-.4 1.9-.5 2.5-.5.7 0 1.4.2 2 .5s1.1.8 1.6 1.6c.5.7.7 1.7.7 2.8v10.6h-2.1V10.9c0-1-.2-1.8-.7-2.3-.5-.5-1.1-.8-1.9-.8-.7 0-1.5.2-2.4.5-.9.3-1.9.8-3 1.4v11.7h-2.1V6.2h2.1V8zM115.8.7h2v5.5h3.8v1.9h-3.8v9.4c0 .8.2 1.4.6 1.8.4.4 1 .7 1.7.7.4 0 .9-.1 1.5-.2v1.8c-.7.1-1.3.1-1.8.1-1.4 0-2.5-.3-3.1-.9-.6-.6-.9-1.6-.9-3V8.1h-2.6V6.2h2.6V.7z"/></g></svg>