<?xml version="1.0" encoding="utf-8"?>
<!-- Generator: Adobe Illustrator 18.0.0, SVG Export Plug-In . SVG Version: 6.00 Build 0)  -->
<!DOCTYPE svg PUBLIC "-//W3C//DTD SVG 1.1//EN" "http://www.w3.org/Graphics/SVG/1.1/DTD/svg11.dtd">
<svg version="1.1" id="Layer_1" xmlns="http://www.w3.org/2000/svg" xmlns:xlink="http://www.w3.org/1999/xlink" x="0px" y="0px"
	 viewBox="0 0 10 22" enable-background="new 0 0 10 22" xml:space="preserve">
<path fill="#305891" d="M6.7,7.2c0-0.8,0-1.5,0-2.3c0-0.8,0.3-1.1,1-1.1c0.6,0,1.3,0,1.9,0c0.2,0,0.3-0.1,0.3-0.3c0-1.1,0-2.1,0-3.2
	C10,0,9.9,0,9.7,0C8.8,0,8,0,7.1,0C6.5,0,6,0.1,5.4,0.2C4,0.5,3,1.6,2.8,3C2.6,4.3,2.7,5.5,2.6,6.7c0,0.2,0,0.3,0,0.5
	c-0.9,0-1.8,0-2.6,0C0,8.5,0,9.7,0,11c0.9,0,1.8,0,2.6,0c0,0.1,0,0.3,0,0.4c0,3.4,0,6.8,0,10.2C2.6,22,2.6,22,3,22
	c1.1,0,2.2,0,3.3,0c0.4,0,0.4,0,0.4-0.4c0-3.4,0-6.8,0-10.2c0-0.1,0-0.2,0-0.4c1,0,1.9,0,2.9,0C9.7,9.7,9.9,8.5,10,7.2
	C8.9,7.2,7.8,7.2,6.7,7.2z"/>
</svg>
