<?xml version="1.0" encoding="utf-8"?>
<!-- Generator: Adobe Illustrator 18.0.0, SVG Export Plug-In . SVG Version: 6.00 Build 0)  -->
<!DOCTYPE svg PUBLIC "-//W3C//DTD SVG 1.1//EN" "http://www.w3.org/Graphics/SVG/1.1/DTD/svg11.dtd">
<svg version="1.1" id="Layer_1" xmlns="http://www.w3.org/2000/svg" xmlns:xlink="http://www.w3.org/1999/xlink" x="0px" y="0px"
	 viewBox="0 0 30.7 31.5" enable-background="new 0 0 30.7 31.5" xml:space="preserve">
<g>
	<path fill="#DE5C54" d="M7.9,31.5c-0.4-0.1-0.8-0.2-1.1-0.4c-0.9-0.5-1.4-1.2-1.7-2.2c-0.4-1.3-0.3-2.7,0-4c0.4-1.6,1-3,1.9-4.4
		c0,0,0-0.1,0.1-0.1c0.1-0.1,0.1-0.2,0.2-0.3c-0.1,0-0.2-0.1-0.3-0.1c-1.3-0.4-2.6-0.7-3.9-1.1C2,18.6,1,17.9,0.5,16.8
		c-0.7-1.3-0.6-2.7,0.1-4c0.4-0.8,1-1.4,1.7-2c0.1-0.1,0.2-0.2,0.2-0.3c0.7-2,1.5-4,2.4-5.9c0.5-1,1-2,1.6-3
		c0.4-0.5,0.8-1.1,1.4-1.3C8.5,0.2,9,0.1,9.5,0.1c1.5-0.1,3,0,4.5,0.2c1.9,0.2,3.7,0.5,5.5,1c1.1,0.3,2.2,0.6,3.3,1.2
		c0.6,0.3,0.8,0.8,0.8,1.4c0,1.6,0,3.2,0,4.9c0,2.7,0,5.4,0,8.1c0,0.7-0.2,1.1-0.7,1.5c-1.6,1.2-3.2,2.3-4.8,3.2
		c-1.4,0.8-2.7,1.7-3.9,2.9c-0.7,0.7-1.5,1.5-1.9,2.4c-0.3,0.6-0.4,1.3-0.7,2c-0.3,0.9-0.7,1.7-1.6,2.2c-0.3,0.2-0.7,0.3-1.1,0.4
		c-0.1,0-0.1,0-0.2,0.1C8.5,31.5,8.2,31.5,7.9,31.5z M20.9,10.5c0-1.9,0-3.8,0-5.7c0-0.2-0.1-0.3-0.3-0.4c-1-0.3-2-0.6-3-0.8
		C16.3,3.4,15,3.2,13.7,3C12.3,2.8,11,2.7,9.6,2.8c-0.4,0-0.7,0.1-0.8,0.5C8.4,4,7.9,4.7,7.6,5.4c-1,2.1-1.8,4.2-2.6,6.4
		c-0.2,0.4-0.4,0.8-0.8,1.1c-0.5,0.3-0.9,0.7-1.2,1.2c-0.4,0.7-0.3,1.4,0.3,1.9c0.3,0.2,0.6,0.4,0.9,0.5c1.1,0.3,2.1,0.6,3.2,0.9
		c0.9,0.2,1.8,0.4,2.7,0.6c1,0.3,1.4,1.5,0.7,2.3c-0.4,0.5-0.9,1-1.3,1.6c-1,1.4-1.7,2.9-1.9,4.6c-0.1,0.7-0.1,1.3,0.2,1.9
		c0.1,0.1,0.2,0.3,0.4,0.3c0.2,0,0.4,0,0.5-0.3c0.2-0.6,0.4-1.1,0.6-1.7c0.2-0.6,0.4-1.3,0.8-1.8c0.6-1,1.4-1.8,2.2-2.6
		c1-0.9,2.1-1.8,3.3-2.5c1.7-1,3.4-2,5-3.3c0.2-0.1,0.2-0.2,0.2-0.4C20.9,14.3,20.9,12.4,20.9,10.5z"/>
	<path fill="#DE5C54" d="M30.7,17.5c-0.1,0.6-0.4,1.1-0.9,1.5c-0.7,0.5-1.5,0.6-2.3,0.3c-0.8-0.3-1.2-0.9-1.4-1.8c0-0.2,0-0.3,0-0.5
		c0-4.4,0-8.9,0-13.3c0-0.9,0.3-1.6,1.1-2.1c1.2-0.7,2.8-0.2,3.2,1.1c0.1,0.2,0.1,0.3,0.2,0.5C30.7,8.1,30.7,12.8,30.7,17.5z"/>
</g>
</svg>
