<?xml version="1.0" encoding="utf-8"?>
<!-- Generator: Adobe Illustrator 18.0.0, SVG Export Plug-In . SVG Version: 6.00 Build 0)  -->
<!DOCTYPE svg PUBLIC "-//W3C//DTD SVG 1.1//EN" "http://www.w3.org/Graphics/SVG/1.1/DTD/svg11.dtd">
<svg version="1.1" id="Layer_1" xmlns="http://www.w3.org/2000/svg" xmlns:xlink="http://www.w3.org/1999/xlink" x="0px" y="0px"
	 viewBox="0 0 23 22" enable-background="new 0 0 23 22" xml:space="preserve">
<g>
	<g>
		<path fill="#CE4D39" d="M6.8,0C6.2,0.1,5.6,0.2,5,0.4C2.3,1.3,1,3.8,1.7,6.5C2.2,8.4,4,9.7,6.3,9.9c0.2,0,0.4,0,0.8,0
			c-0.4,1-0.4,2,0.5,2.8c-0.9,0.1-1.8,0.1-2.6,0.3c-0.9,0.2-1.9,0.5-2.7,0.9c-1.2,0.6-2,1.6-2.2,2.9C0.1,16.9,0,17,0,17.1
			c0,0.4,0,0.7,0,1.1c0.5,1.9,1.9,2.8,3.7,3.4c1.6,0.5,3.2,0.5,4.8,0.4c1.5-0.1,2.9-0.6,4.1-1.5c2.2-1.7,2.4-4.6,0.5-6.6
			c-0.6-0.6-1.2-1-1.8-1.6c-0.4-0.4-0.9-0.7-1.2-1.1c-0.5-0.6-0.5-1.2,0-1.8c0.3-0.4,0.7-0.7,1.1-1c1.4-1.2,2-2.6,1.6-4.4
			c-0.2-1-0.7-1.8-1.7-2.5c0.5,0,0.9,0,1.2,0c0.2,0,0.5-0.1,0.7-0.2c0.5-0.4,0.8-0.9,1.3-1.3C11.8,0,9.3,0,6.8,0z M3.9,19.8
			c-1.7-1.3-1.8-3.5-0.1-4.9c1.7-1.4,4.7-1.6,6.6-0.4c1.2,0.8,1.8,1.8,1.7,3.2c-0.1,1.4-1,2.3-2.3,2.7c-0.8,0.3-1.7,0.4-2.5,0.5
			C6,20.8,4.8,20.5,3.9,19.8z M10.3,6.9C9.9,8.6,8.4,9.4,6.8,8.7C5,8.1,3.8,6.1,4,4.1c0-0.5,0.1-1,0.4-1.5c0.7-1.5,2.4-2,3.8-1.1
			c1.3,0.9,1.9,2.2,2.1,3.7c0,0.2,0,0.5,0.1,0.8C10.3,6.3,10.3,6.6,10.3,6.9z"/>
		<path fill="#CE4D39" d="M20,3.3c0-1,0-2,0-2.9c-0.5,0-1,0-1.5,0c0,1,0,1.9,0,2.9c-1,0-2,0-3,0c0,0.5,0,1,0,1.5c1,0,2,0,3,0
			c0,1,0,2,0,2.9c0.5,0,1,0,1.5,0c0-1,0-1.9,0-2.9c1,0,2,0,3,0c0-0.5,0-1,0-1.5C22,3.3,21,3.3,20,3.3z"/>
	</g>
</g>
</svg>
