<?xml version="1.0" encoding="utf-8"?>
<!-- Generator: Adobe Illustrator 18.1.0, SVG Export Plug-In . SVG Version: 6.00 Build 0)  -->
<svg version="1.1" id="Layer_1" xmlns="http://www.w3.org/2000/svg" xmlns:xlink="http://www.w3.org/1999/xlink" x="0px" y="0px"
	 viewBox="0 0 114 33.5" enable-background="new 0 0 114 33.5" xml:space="preserve">
<g>
	<rect x="21.5" y="13.5" fill="none" width="0" height="0"/>
	<polygon fill="none" points="7,7 7.2,6.9 7.1,6.9 	"/>
	<polygon fill="none" points="7,13.6 7.2,13.5 7.1,13.5 	"/>
	<polygon fill="none" points="7,26.7 7.2,26.6 7.1,26.6 	"/>
	<rect x="7.2" y="6.9" fill="none" width="0" height="0"/>
	<rect x="7.2" y="20" fill="none" width="0" height="0"/>
	<rect x="7.2" y="26.6" fill="none" width="0" height="0"/>
	<rect x="21.5" y="6.9" fill="none" width="0" height="0"/>
	<polygon fill="none" points="21.3,20.2 14.3,25.1 14.3,25.1 21.3,20.2 21.4,20 21.4,20 	"/>
	<polygon fill="none" points="21.3,7 14.3,12 14.3,12 21.3,7 21.4,6.9 21.4,6.9 	"/>
	<rect x="21.5" y="20" fill="none" width="0" height="0"/>
	<polygon fill="none" points="21.3,26.7 14.3,31.7 14.3,31.7 21.3,26.7 21.4,26.6 21.4,26.6 	"/>
	<rect x="7.2" y="0.3" fill="none" width="0" height="0"/>
	<polygon fill="none" points="21.3,0.4 14.3,5.4 14.3,5.4 21.3,0.4 21.4,0.3 21.4,0.3 	"/>
	<rect x="7.2" y="13.5" fill="none" width="0" height="0"/>
	<polygon fill="none" points="21.3,13.6 14.3,18.5 14.3,18.5 21.3,13.6 21.4,13.5 21.4,13.5 	"/>
	<polygon fill="none" points="7,0.4 7.2,0.3 7.1,0.3 	"/>
	<rect x="21.5" y="26.6" fill="none" width="0" height="0"/>
	<rect x="21.5" y="0.3" fill="none" width="0" height="0"/>
	<polygon fill="none" points="7,20.2 7.2,20.1 7.1,20 	"/>
	<polygon fill="none" points="14.3,26.6 14.3,26.6 14.3,26.6 21.4,21.6 28.3,26.4 28.5,26.6 28.5,26.6 28.6,26.6 28.8,26.4 
		35.6,21.6 42.7,26.6 42.7,26.6 42.7,26.6 49.9,21.6 56.8,26.5 56.9,26.6 57,26.6 57,26.6 57.1,26.5 64,21.6 71.2,26.6 71.2,26.6 
		71.2,26.6 78.3,21.6 85.1,26.4 85.3,26.6 85.4,26.6 85.4,26.6 85.6,26.4 92.5,21.6 99.6,26.6 99.6,26.6 99.6,26.6 106.9,21.6 
		114,26.5 114,25 107,20.2 106.8,20 106.8,20.1 106.7,20 106.6,20.2 99.6,25.1 92.6,20.2 92.5,20 92.5,20.1 92.4,20 92.3,20.2 
		85.4,25.1 78.5,20.2 78.3,20 78.3,20.1 78.3,20 78.2,20.2 71.2,25.1 64.2,20.2 64.1,20 64,20.1 64,20 63.9,20.2 57,25.1 50,20.2 
		49.9,20 49.9,20.1 49.8,20 49.7,20.2 42.7,25.1 35.7,20.2 35.6,20 35.6,20.1 35.6,20 35.5,20.2 28.5,25.1 21.6,20.2 21.5,20 
		21.4,20.1 21.4,20.1 21.4,20.1 21.4,20 21.3,20.2 14.3,25.1 14.3,25.1 14.3,25.1 7.3,20.2 7.2,20.1 7.2,20.1 7.2,20.1 7.2,20.1 
		7.2,20.1 7,20.2 0,25.1 0,26.6 7.1,21.6 	"/>
	<polygon fill="none" points="14.3,13.5 14.3,13.5 14.3,13.5 21.4,8.4 28.3,13.3 28.5,13.5 28.5,13.4 28.6,13.5 28.8,13.3 35.6,8.4 
		42.7,13.5 42.7,13.5 42.7,13.5 49.9,8.4 56.8,13.3 56.9,13.5 57,13.5 57,13.5 57.1,13.3 64,8.4 71.2,13.5 71.2,13.5 71.2,13.5 
		78.3,8.4 85.1,13.3 85.3,13.5 85.4,13.4 85.4,13.5 85.6,13.3 92.5,8.4 99.6,13.5 99.6,13.5 99.6,13.5 106.9,8.4 114,13.4 114,11.8 
		107,7 106.8,6.9 106.8,6.9 106.7,6.9 106.6,7 99.6,12 92.6,7 92.5,6.9 92.5,6.9 92.4,6.9 92.3,7 85.4,11.9 78.5,7 78.3,6.9 
		78.3,6.9 78.3,6.9 78.2,7 71.2,12 64.2,7 64.1,6.9 64,6.9 64,6.9 63.9,7 57,11.9 50,7 49.9,6.9 49.9,6.9 49.8,6.9 49.7,7 42.7,12 
		35.7,7 35.6,6.9 35.6,6.9 35.6,6.9 35.5,7 28.5,11.9 21.6,7 21.5,6.9 21.4,6.9 21.4,6.9 21.4,6.9 21.4,6.9 21.3,7 14.3,12 14.3,12 
		14.3,12 7.3,7 7.2,6.9 7.2,6.9 7.2,6.9 7.2,6.9 7.2,6.9 7,7 0,11.9 0,13.4 7.1,8.4 	"/>
	<polygon fill="none" points="14.3,20 14.3,20 14.3,20 21.4,15 28.3,19.8 28.5,20 28.5,20 28.6,20 28.8,19.8 35.6,15 42.7,20 
		42.7,20 42.7,20 49.9,15 56.8,19.9 56.9,20 57,20 57,20 57.1,19.9 64,15 71.2,20 71.2,20 71.2,20 78.3,15 85.1,19.8 85.3,20 
		85.4,20 85.4,20 85.6,19.8 92.5,15 99.6,20 99.6,20 99.6,20 106.9,15 114,19.9 114,18.4 107,13.6 106.8,13.5 106.8,13.5 
		106.7,13.5 106.6,13.6 99.6,18.5 92.6,13.6 92.5,13.5 92.5,13.5 92.4,13.5 92.3,13.6 85.4,18.5 78.5,13.6 78.3,13.5 78.3,13.5 
		78.3,13.5 78.2,13.6 71.2,18.5 64.2,13.6 64.1,13.5 64,13.5 64,13.5 63.9,13.6 57,18.5 50,13.6 49.9,13.5 49.9,13.5 49.8,13.5 
		49.7,13.6 42.7,18.5 35.7,13.6 35.6,13.5 35.6,13.5 35.6,13.5 35.5,13.6 28.5,18.5 21.6,13.6 21.5,13.5 21.4,13.5 21.4,13.5 
		21.4,13.5 21.4,13.5 21.3,13.6 14.3,18.5 14.3,18.5 14.3,18.5 7.3,13.6 7.2,13.5 7.2,13.5 7.2,13.5 7.2,13.5 7.2,13.5 7,13.6 
		0,18.5 0,20 7.1,15 	"/>
	<polygon fill="none" points="14.3,6.9 14.3,6.9 14.3,6.9 21.4,1.9 28.3,6.7 28.5,6.9 28.5,6.9 28.6,6.9 28.8,6.7 35.6,1.9 
		42.7,6.9 42.7,6.9 42.7,6.9 49.9,1.9 56.8,6.8 56.9,6.9 57,6.9 57,6.9 57.1,6.8 64,1.9 71.2,6.9 71.2,6.9 71.2,6.9 78.3,1.9 
		85.1,6.7 85.3,6.9 85.4,6.9 85.4,6.9 85.6,6.7 92.5,1.9 99.6,6.9 99.6,6.9 99.6,6.9 106.9,1.9 114,6.8 114,5.2 107,0.4 106.8,0.3 
		106.8,0.3 106.7,0.3 106.6,0.4 99.6,5.4 92.6,0.4 92.5,0.3 92.5,0.3 92.4,0.3 92.3,0.4 85.4,5.3 78.5,0.4 78.3,0.3 78.3,0.3 
		78.3,0.3 78.2,0.4 71.2,5.4 64.2,0.4 64.1,0.3 64,0.3 64,0.3 63.9,0.4 57,5.4 50,0.4 49.9,0.3 49.9,0.3 49.8,0.3 49.7,0.4 
		42.7,5.4 35.7,0.4 35.6,0.3 35.6,0.3 35.6,0.3 35.5,0.4 28.5,5.3 21.6,0.4 21.5,0.3 21.4,0.3 21.4,0.3 21.4,0.3 21.4,0.3 21.3,0.4 
		14.3,5.4 14.3,5.4 14.3,5.4 7.3,0.4 7.2,0.3 7.2,0.3 7.2,0.3 7.2,0.3 7.2,0.3 7,0.4 0,5.3 0,6.9 7.1,1.9 	"/>
	<polygon fill="none" points="14.3,33.2 14.3,33.2 14.3,33.2 21.4,28.2 28.3,33 28.5,33.2 28.5,33.2 28.6,33.2 28.8,33 35.6,28.2 
		42.7,33.2 42.7,33.2 42.7,33.2 49.9,28.2 56.8,33.1 56.9,33.2 57,33.2 57,33.2 57.1,33.1 64,28.2 71.2,33.2 71.2,33.2 71.2,33.2 
		78.3,28.2 85.1,33 85.3,33.2 85.4,33.2 85.4,33.2 85.6,33 92.5,28.2 99.6,33.2 99.6,33.2 99.6,33.2 106.9,28.2 114,33.1 114,31.5 
		107,26.7 106.8,26.6 106.8,26.6 106.7,26.6 106.6,26.7 99.6,31.7 92.6,26.7 92.5,26.6 92.5,26.6 92.4,26.6 92.3,26.7 85.4,31.6 
		78.5,26.7 78.3,26.6 78.3,26.6 78.3,26.6 78.2,26.7 71.2,31.7 64.2,26.7 64.1,26.6 64,26.6 64,26.6 63.9,26.7 57,31.6 50,26.7 
		49.9,26.6 49.9,26.6 49.8,26.6 49.7,26.7 42.7,31.7 35.7,26.7 35.6,26.6 35.6,26.6 35.6,26.6 35.5,26.7 28.5,31.6 21.6,26.7 
		21.5,26.6 21.4,26.6 21.4,26.6 21.4,26.6 21.4,26.6 21.3,26.7 14.3,31.7 14.3,31.7 14.3,31.7 7.3,26.7 7.2,26.6 7.2,26.6 7.2,26.6 
		7.2,26.6 7.2,26.6 7,26.7 0,31.6 0,33.2 7.1,28.2 	"/>
	<g>
		<polygon fill="#EAEAEA" points="107.2,0.2 107,0.1 106.8,0 106.7,0 106.7,0 106.5,0.2 106.4,0.3 99.6,5.1 92.8,0.2 92.7,0.2 
			92.5,0 92.5,0 92.4,0 92.3,0.1 92.1,0.3 85.4,5 78.6,0.2 78.5,0.1 78.4,0 78.3,0 78.3,0 78.1,0.1 78,0.3 71.2,5.1 64.3,0.2 
			64.2,0.1 64.1,0 64,0 64,0 63.8,0.1 63.7,0.3 57,5 50.2,0.2 50.1,0.1 49.9,0 49.9,0 49.8,0 49.7,0.1 49.5,0.3 42.7,5.1 35.9,0.2 
			35.8,0.1 35.7,0 35.6,0 35.6,0 35.4,0.1 35.3,0.3 28.5,5 21.7,0.2 21.6,0.1 21.5,0 21.4,0 21.4,0 21.2,0.1 21.1,0.3 14.3,5.1 
			7.5,0.2 7.4,0.2 7.2,0 7.2,0 7.2,0 7,0.1 6.8,0.3 0,5 0,5.3 7,0.4 7.1,0.3 7.2,0.3 7.2,0.3 7.2,0.3 7.2,0.3 7.2,0.3 7.3,0.4 
			14.3,5.4 14.3,5.4 21.3,0.4 21.4,0.3 21.4,0.3 21.4,0.3 21.5,0.3 21.6,0.4 28.5,5.3 35.5,0.4 35.6,0.3 35.6,0.3 35.6,0.3 
			35.7,0.4 42.7,5.4 49.7,0.4 49.8,0.3 49.9,0.3 49.9,0.3 50,0.4 57,5.4 63.9,0.4 64,0.3 64,0.3 64.1,0.3 64.2,0.4 71.2,5.4 
			78.2,0.4 78.3,0.3 78.3,0.3 78.3,0.3 78.5,0.4 85.4,5.3 92.3,0.4 92.4,0.3 92.5,0.3 92.5,0.3 92.6,0.4 99.6,5.4 106.6,0.4 
			106.7,0.3 106.7,0.3 106.7,0.3 107,0.4 114,5.2 114,4.9 		"/>
		<polygon fill="#EAEAEA" points="99.7,6.9 99.6,6.9 99.6,6.9 92.5,1.9 85.6,6.7 85.4,6.9 85.4,6.9 85.3,6.9 85.1,6.7 78.3,1.9 
			71.2,6.9 71.2,6.9 71.2,6.9 64,1.9 57.1,6.8 57,6.9 57,6.9 56.9,6.9 56.8,6.8 49.9,1.9 42.7,6.9 42.7,6.9 42.7,6.9 35.6,1.9 
			28.8,6.7 28.6,6.9 28.5,6.9 28.5,6.9 28.3,6.7 21.4,1.9 14.3,6.9 14.3,6.9 14.3,6.9 7.1,1.9 0,6.9 0,7.2 0.2,7.1 7.2,2.2 
			14.2,7.1 14.2,7.1 14.3,7.2 14.3,7.2 14.3,7.2 14.4,7.1 14.5,7.1 21.4,2.2 28.1,6.9 28.3,7.1 28.5,7.2 28.5,7.2 28.6,7.2 
			28.7,7.1 29,6.9 35.6,2.2 42.6,7.1 42.6,7.1 42.7,7.2 42.7,7.2 42.7,7.2 42.8,7.1 42.9,7.1 49.9,2.2 56.6,7 56.7,7.1 56.9,7.2 
			57,7.2 57,7.2 57.2,7.1 57.3,6.9 64,2.2 71,7.1 71.1,7.1 71.1,7.2 71.2,7.2 71.2,7.2 71.3,7.1 71.3,7.1 78.3,2.2 85,6.9 85.2,7.1 
			85.3,7.2 85.4,7.2 85.5,7.2 85.6,7.1 85.8,6.9 92.5,2.2 99.4,7.1 99.5,7.1 99.6,7.2 99.6,7.2 99.6,7.2 99.7,7.1 99.7,7.1 
			106.9,2.2 114,7.1 114,6.8 106.9,1.9 		"/>
		<polygon fill="#EAEAEA" points="107,6.7 106.8,6.6 106.7,6.6 106.7,6.6 106.5,6.7 106.4,6.8 99.6,11.6 92.8,6.8 92.7,6.7 
			92.5,6.6 92.5,6.6 92.4,6.6 92.3,6.7 92.1,6.8 85.4,11.6 78.6,6.8 78.5,6.7 78.4,6.6 78.3,6.6 78.3,6.6 78.1,6.7 78,6.8 
			71.2,11.6 64.3,6.8 64.2,6.7 64.1,6.6 64,6.6 64,6.6 63.8,6.7 63.7,6.8 57,11.6 50.2,6.8 50.1,6.7 49.9,6.6 49.9,6.6 49.8,6.6 
			49.7,6.7 49.5,6.8 42.7,11.6 35.9,6.8 35.8,6.7 35.7,6.6 35.6,6.6 35.6,6.6 35.4,6.7 35.3,6.8 28.5,11.6 21.7,6.8 21.6,6.7 
			21.5,6.6 21.4,6.6 21.4,6.6 21.2,6.7 21.1,6.8 14.3,11.6 7.5,6.8 7.4,6.7 7.2,6.6 7.2,6.6 7.2,6.6 7,6.7 6.8,6.8 0,11.6 0,11.9 
			7,7 7.1,6.9 7.2,6.9 7.2,6.9 7.2,6.9 7.2,6.9 7.2,6.9 7.3,7 14.3,12 14.3,12 21.3,7 21.4,6.9 21.4,6.9 21.4,6.9 21.5,6.9 
			21.5,6.9 21.6,7 28.5,11.9 35.5,7 35.6,6.9 35.6,6.9 35.6,6.9 35.7,7 42.7,12 49.7,7 49.8,6.9 49.9,6.9 49.9,6.9 50,7 57,11.9 
			63.9,7 64,6.9 64,6.9 64.1,6.9 64.2,7 71.2,12 78.2,7 78.3,6.9 78.3,6.9 78.3,6.9 78.5,7 85.4,11.9 92.3,7 92.4,6.9 92.5,6.9 
			92.5,6.9 92.6,7 99.6,12 106.6,7 106.7,6.9 106.7,6.9 106.7,6.9 107,7 114,11.8 114,11.5 107.2,6.8 		"/>
		<polygon fill="#EAEAEA" points="99.7,13.5 99.6,13.5 99.6,13.5 92.5,8.4 85.6,13.3 85.4,13.5 85.4,13.4 85.3,13.5 85.1,13.3 
			78.3,8.4 71.2,13.5 71.2,13.5 71.2,13.5 64,8.4 57.1,13.3 57,13.5 57,13.5 56.9,13.5 56.8,13.3 49.9,8.4 42.7,13.5 42.7,13.5 
			42.7,13.5 35.6,8.4 28.8,13.3 28.6,13.5 28.5,13.4 28.5,13.5 28.3,13.3 21.4,8.4 14.3,13.5 14.3,13.5 14.3,13.5 7.1,8.4 0,13.4 
			0,13.7 0.2,13.7 7.2,8.8 14.2,13.7 14.2,13.7 14.3,13.8 14.3,13.8 14.3,13.8 14.4,13.7 14.5,13.7 21.4,8.8 28.1,13.5 28.3,13.7 
			28.5,13.8 28.5,13.7 28.6,13.8 28.7,13.7 29,13.4 35.6,8.8 42.6,13.7 42.6,13.7 42.7,13.8 42.7,13.8 42.7,13.8 42.9,13.7 
			42.9,13.7 49.9,8.8 56.6,13.5 56.7,13.7 56.9,13.8 57,13.8 57,13.8 57.2,13.7 57.3,13.5 64,8.8 71,13.7 71.1,13.7 71.1,13.8 
			71.2,13.8 71.2,13.8 71.3,13.7 71.3,13.7 78.3,8.8 85,13.5 85.2,13.7 85.3,13.8 85.4,13.7 85.5,13.8 85.6,13.7 85.8,13.4 
			92.5,8.8 99.4,13.7 99.5,13.7 99.6,13.8 99.6,13.8 99.6,13.8 99.7,13.7 99.7,13.7 106.9,8.8 114,13.7 114,13.4 106.9,8.4 		"/>
		<polygon fill="#EAEAEA" points="107,13.3 106.8,13.1 106.7,13.2 106.7,13.2 106.5,13.3 106.4,13.4 99.6,18.2 92.8,13.4 92.7,13.3 
			92.5,13.1 92.5,13.2 92.4,13.2 92.3,13.3 92.1,13.4 85.4,18.2 78.6,13.4 78.5,13.3 78.4,13.1 78.3,13.2 78.3,13.2 78.1,13.3 
			78,13.4 71.2,18.2 64.3,13.4 64.2,13.3 64.1,13.1 64,13.2 64,13.2 63.8,13.3 63.7,13.4 57,18.2 50.2,13.4 50.1,13.3 49.9,13.1 
			49.9,13.2 49.8,13.2 49.7,13.3 49.5,13.4 42.7,18.2 35.9,13.4 35.8,13.3 35.7,13.1 35.6,13.2 35.6,13.2 35.4,13.3 35.3,13.4 
			28.5,18.2 21.7,13.4 21.6,13.3 21.5,13.1 21.4,13.2 21.4,13.2 21.2,13.3 21.1,13.4 14.3,18.2 7.5,13.4 7.4,13.3 7.2,13.1 
			7.2,13.2 7.2,13.2 7,13.3 6.8,13.4 0,18.2 0,18.5 7,13.6 7.1,13.5 7.2,13.5 7.2,13.5 7.2,13.5 7.2,13.5 7.2,13.5 7.3,13.6 
			14.3,18.5 14.3,18.5 21.3,13.6 21.4,13.5 21.4,13.5 21.4,13.5 21.5,13.5 21.5,13.5 21.6,13.6 28.5,18.5 35.5,13.6 35.6,13.5 
			35.6,13.5 35.6,13.5 35.7,13.6 42.7,18.5 49.7,13.6 49.8,13.5 49.9,13.5 49.9,13.5 50,13.6 57,18.5 63.9,13.6 64,13.5 64,13.5 
			64.1,13.5 64.2,13.6 71.2,18.5 78.2,13.6 78.3,13.5 78.3,13.5 78.3,13.5 78.5,13.6 85.4,18.5 92.3,13.6 92.4,13.5 92.5,13.5 
			92.5,13.5 92.6,13.6 99.6,18.5 106.6,13.6 106.7,13.5 106.7,13.5 106.7,13.5 107,13.6 114,18.4 114,18.1 107.2,13.4 		"/>
		<polygon fill="#EAEAEA" points="99.7,20 99.6,20 99.6,20 92.5,15 85.6,19.8 85.4,20 85.4,20 85.3,20 85.1,19.8 78.3,15 71.2,20 
			71.2,20 71.2,20 64,15 57.1,19.9 57,20 57,20 56.9,20 56.8,19.9 49.9,15 42.7,20 42.7,20 42.7,20 35.6,15 28.8,19.8 28.6,20 
			28.5,20 28.5,20 28.3,19.8 21.4,15 14.3,20 14.3,20 14.3,20 7.1,15 0,20 0,20.3 0.2,20.3 7.2,15.3 14.2,20.3 14.2,20.3 14.3,20.4 
			14.3,20.4 14.3,20.4 14.4,20.3 14.5,20.3 21.4,15.3 28.1,20 28.3,20.2 28.5,20.4 28.5,20.3 28.6,20.4 28.7,20.2 29,20 35.6,15.3 
			42.6,20.3 42.6,20.3 42.7,20.4 42.7,20.4 42.7,20.4 42.8,20.3 42.9,20.3 49.9,15.3 56.6,20.1 56.7,20.2 56.9,20.4 57,20.3 
			57,20.4 57.2,20.2 57.3,20.1 64,15.3 71,20.3 71.1,20.3 71.1,20.4 71.2,20.4 71.2,20.4 71.3,20.3 71.3,20.3 78.3,15.3 85,20 
			85.2,20.2 85.3,20.4 85.4,20.3 85.5,20.4 85.6,20.2 85.8,20 92.5,15.3 99.4,20.3 99.5,20.3 99.6,20.4 99.6,20.4 99.6,20.4 
			99.7,20.3 99.7,20.3 106.9,15.3 114,20.2 114,19.9 106.9,15 		"/>
		<polygon fill="#EAEAEA" points="99.7,26.6 99.6,26.6 99.6,26.6 92.5,21.6 85.6,26.4 85.4,26.6 85.4,26.6 85.3,26.6 85.1,26.4 
			78.3,21.6 71.2,26.6 71.2,26.6 71.2,26.6 64,21.6 57.1,26.5 57,26.6 57,26.6 56.9,26.6 56.8,26.5 49.9,21.6 42.7,26.6 42.7,26.6 
			42.7,26.6 35.6,21.6 28.8,26.4 28.6,26.6 28.5,26.6 28.5,26.6 28.3,26.4 21.4,21.6 14.3,26.6 14.3,26.6 14.3,26.6 7.1,21.6 
			0,26.6 0,26.9 0.2,26.8 7.2,21.9 14.2,26.8 14.2,26.9 14.3,26.9 14.3,26.9 14.3,26.9 14.4,26.8 14.5,26.8 21.4,21.9 28.1,26.6 
			28.3,26.8 28.5,26.9 28.5,26.9 28.6,26.9 28.7,26.8 29,26.6 35.6,21.9 42.6,26.8 42.6,26.9 42.7,26.9 42.7,26.9 42.7,26.9 
			42.8,26.8 42.9,26.8 49.9,21.9 56.6,26.7 56.7,26.8 56.9,26.9 57,26.9 57,26.9 57.2,26.8 57.3,26.7 64,21.9 71,26.8 71.1,26.9 
			71.1,26.9 71.2,26.9 71.2,26.9 71.3,26.8 71.3,26.8 78.3,21.9 85,26.6 85.2,26.8 85.3,26.9 85.4,26.9 85.5,26.9 85.6,26.8 
			85.8,26.6 92.5,21.9 99.4,26.8 99.5,26.9 99.6,26.9 99.6,26.9 99.6,26.9 99.7,26.8 99.7,26.8 106.9,21.9 114,26.8 114,26.5 
			106.9,21.6 		"/>
		<polygon fill="#EAEAEA" points="107,19.9 106.8,19.7 106.7,19.8 106.7,19.7 106.5,19.9 106.4,20 99.6,24.8 92.8,20 92.7,19.9 
			92.5,19.7 92.5,19.8 92.4,19.7 92.3,19.9 92.1,20 85.4,24.8 78.6,20 78.5,19.9 78.4,19.7 78.3,19.8 78.3,19.7 78.1,19.9 78,20 
			71.2,24.8 64.3,20 64.2,19.9 64.1,19.7 64,19.8 64,19.7 63.8,19.9 63.7,20 57,24.8 50.2,20 50.1,19.9 49.9,19.7 49.9,19.8 
			49.8,19.7 49.7,19.9 49.5,20 42.7,24.8 35.9,20 35.8,19.9 35.7,19.7 35.6,19.8 35.6,19.7 35.4,19.9 35.3,20 28.5,24.8 21.7,20 
			21.6,19.9 21.5,19.7 21.4,19.8 21.4,19.7 21.2,19.9 21.1,20 14.3,24.8 7.5,20 7.4,19.9 7.2,19.7 7.2,19.8 7.2,19.7 7,19.9 6.8,20 
			0,24.8 0,25.1 7,20.2 7.1,20 7.2,20.1 7.2,20.1 7.2,20.1 7.2,20 7.2,20.1 7.3,20.2 14.3,25.1 14.3,25.1 21.3,20.2 21.4,20 
			21.4,20 21.4,20.1 21.4,20.1 21.5,20 21.6,20.2 28.5,25.1 35.5,20.2 35.6,20 35.6,20.1 35.6,20 35.7,20.2 42.7,25.1 49.7,20.2 
			49.8,20 49.9,20.1 49.9,20 50,20.2 57,25.1 63.9,20.2 64,20 64,20.1 64.1,20 64.2,20.2 71.2,25.1 78.2,20.2 78.3,20 78.3,20.1 
			78.3,20 78.5,20.2 85.4,25.1 92.3,20.2 92.4,20 92.5,20.1 92.5,20 92.6,20.2 99.6,25.1 106.6,20.2 106.7,20 106.7,20.1 106.7,20 
			107,20.2 114,25 114,24.7 107.2,20 		"/>
		<polygon fill="#EAEAEA" points="107,26.4 106.8,26.3 106.7,26.3 106.7,26.3 106.5,26.4 106.4,26.6 99.6,31.4 92.8,26.5 92.7,26.4 
			92.5,26.3 92.5,26.3 92.4,26.3 92.3,26.4 92.1,26.6 85.4,31.3 78.6,26.5 78.5,26.4 78.4,26.3 78.3,26.3 78.3,26.3 78.1,26.4 
			78,26.6 71.2,31.4 64.3,26.5 64.2,26.4 64.1,26.3 64,26.3 64,26.3 63.8,26.4 63.7,26.6 57,31.3 50.2,26.5 50.1,26.4 49.9,26.3 
			49.9,26.3 49.8,26.3 49.7,26.4 49.5,26.6 42.7,31.4 35.9,26.5 35.8,26.4 35.7,26.3 35.6,26.3 35.6,26.3 35.4,26.4 35.3,26.6 
			28.5,31.3 21.7,26.5 21.6,26.4 21.5,26.3 21.4,26.3 21.4,26.3 21.2,26.4 21.1,26.6 14.3,31.4 7.5,26.5 7.4,26.4 7.2,26.3 
			7.2,26.3 7.2,26.3 7,26.4 6.8,26.6 0,31.3 0,31.6 7,26.7 7.1,26.6 7.2,26.6 7.2,26.6 7.2,26.6 7.2,26.6 7.2,26.6 7.3,26.7 
			14.3,31.7 14.3,31.7 21.3,26.7 21.4,26.6 21.4,26.6 21.4,26.6 21.4,26.6 21.5,26.6 21.6,26.7 28.5,31.6 35.5,26.7 35.6,26.6 
			35.6,26.6 35.6,26.6 35.7,26.7 42.7,31.7 49.7,26.7 49.8,26.6 49.9,26.6 49.9,26.6 50,26.7 57,31.6 63.9,26.7 64,26.6 64,26.6 
			64.1,26.6 64.2,26.7 71.2,31.7 78.2,26.7 78.3,26.6 78.3,26.6 78.3,26.6 78.5,26.7 85.4,31.6 92.3,26.7 92.4,26.6 92.5,26.6 
			92.5,26.6 92.6,26.7 99.6,31.7 106.6,26.7 106.7,26.6 106.7,26.6 106.7,26.6 107,26.7 114,31.5 114,31.2 107.2,26.5 		"/>
		<polygon fill="#EAEAEA" points="99.7,33.2 99.6,33.2 99.6,33.2 92.5,28.2 85.6,33 85.4,33.2 85.4,33.2 85.3,33.2 85.1,33 
			78.3,28.2 71.2,33.2 71.2,33.2 71.2,33.2 64,28.2 57.1,33.1 57,33.2 57,33.2 56.9,33.2 56.8,33.1 49.9,28.2 42.7,33.2 42.7,33.2 
			42.7,33.2 35.6,28.2 28.8,33 28.6,33.2 28.5,33.2 28.5,33.2 28.3,33 21.4,28.2 14.3,33.2 14.3,33.2 14.3,33.2 7.1,28.2 0,33.2 
			0,33.5 0.2,33.4 7.2,28.5 14.2,33.4 14.2,33.4 14.3,33.5 14.3,33.5 14.3,33.5 14.4,33.4 14.5,33.4 21.4,28.5 28.1,33.2 28.3,33.4 
			28.5,33.5 28.5,33.5 28.6,33.5 28.7,33.4 29,33.2 35.6,28.5 42.6,33.4 42.6,33.4 42.7,33.5 42.7,33.5 42.7,33.5 42.9,33.4 
			42.9,33.4 49.9,28.5 56.6,33.3 56.7,33.4 56.9,33.5 57,33.5 57,33.5 57.2,33.4 57.3,33.2 64,28.5 71,33.4 71.1,33.4 71.1,33.5 
			71.2,33.5 71.2,33.5 71.3,33.4 71.3,33.4 78.3,28.5 85,33.2 85.2,33.4 85.3,33.5 85.4,33.5 85.5,33.5 85.6,33.4 85.8,33.2 
			92.5,28.5 99.4,33.4 99.5,33.4 99.6,33.5 99.6,33.5 99.6,33.5 99.7,33.4 99.7,33.4 106.9,28.5 114,33.4 114,33.1 106.9,28.2 		"/>
	</g>
</g>
</svg>
