<?xml version="1.0" encoding="utf-8"?>
<!-- Generator: Adobe Illustrator 18.1.0, SVG Export Plug-In . SVG Version: 6.00 Build 0)  -->
<svg version="1.1" id="Layer_1" xmlns="http://www.w3.org/2000/svg" xmlns:xlink="http://www.w3.org/1999/xlink" x="0px" y="0px"
	 viewBox="270 43.8 420 394.1" enable-background="new 270 43.8 420 394.1" xml:space="preserve">
<g>
	<path fill="#808080" d="M690,388.2L575.2,279c14-22.4,22.4-50.4,22.4-78.4c0-84-78.4-156.8-165.2-156.8C342.8,43.8,270,111,270,195
		s78.4,156.8,165.2,156.8c30.8,0,56-8.4,81.2-19.6l112,103.6c2.8,2.8,8.4,2.8,11.2,0L690,388.2z M320.4,195
		c0-58.8,50.4-103.6,112-103.6S550,141.8,550,200.6s-50.4,103.6-112,103.6C373.6,304.2,320.4,253.8,320.4,195z"/>
</g>
</svg>
