<?xml version="1.0" encoding="utf-8"?>
<!-- Generator: Adobe Illustrator 18.1.0, SVG Export Plug-In . SVG Version: 6.00 Build 0)  -->
<svg version="1.1" id="Layer_1" xmlns="http://www.w3.org/2000/svg" xmlns:xlink="http://www.w3.org/1999/xlink" x="0px" y="0px"
	 viewBox="0 0 20 20" style="enable-background:new 0 0 20 20;" xml:space="preserve">
<style type="text/css">
	.st0{fill:#808080;}
</style>
<g>
	<path class="st0" d="M17.5,14.5l-4.1-3.9c0.5-0.8,0.8-1.8,0.8-2.8c0-3-2.8-5.6-5.9-5.6c-3.2,0-5.8,2.4-5.8,5.4s2.8,5.6,5.9,5.6
		c1.1,0,2-0.3,2.9-0.7l4,3.7c0.1,0.1,0.3,0.1,0.4,0L17.5,14.5z M4.3,7.6c0-2.1,1.8-3.7,4-3.7c2.2,0,4.2,1.8,4.2,3.9
		c0,2.1-1.8,3.7-4,3.7C6.2,11.5,4.3,9.7,4.3,7.6z"/>
</g>
</svg>
