<?xml version="1.0" encoding="utf-8"?>
<!-- Generator: Adobe Illustrator 18.0.0, SVG Export Plug-In . SVG Version: 6.00 Build 0)  -->
<!DOCTYPE svg PUBLIC "-//W3C//DTD SVG 1.1//EN" "http://www.w3.org/Graphics/SVG/1.1/DTD/svg11.dtd">
<svg version="1.1" id="Layer_1" xmlns="http://www.w3.org/2000/svg" xmlns:xlink="http://www.w3.org/1999/xlink" x="0px" y="0px"
	 viewBox="0 0 22.5 21.5" enable-background="new 0 0 22.5 21.5" xml:space="preserve">
<g>
	<path fill="#FFFFFF" stroke="#FFFFFF" stroke-width="0.5" stroke-miterlimit="10" d="M17.6,21.2c-0.1,0-0.2,0-0.4-0.1l-6-3.6
		l-6,3.6c-0.2,0.1-0.5,0.1-0.8,0c-0.2-0.2-0.3-0.5-0.3-0.7l1.6-6.8L0.5,9C0.3,8.8,0.2,8.5,0.3,8.2C0.4,8,0.6,7.8,0.9,7.7l7-0.6
		l2.7-6.5c0.1-0.3,0.4-0.4,0.6-0.4l0,0c0.3,0,0.5,0.2,0.6,0.4l2.7,6.5l7,0.6c0.3,0,0.5,0.2,0.6,0.5c0.1,0.3,0,0.6-0.2,0.7l-5.3,4.6
		l1.6,6.8c0.1,0.3,0,0.6-0.3,0.7C17.9,21.2,17.8,21.2,17.6,21.2z M2.6,9L7,12.8c0.2,0.2,0.3,0.4,0.2,0.7l-1.3,5.6l5-3
		c0.2-0.1,0.5-0.1,0.7,0l5,3l-1.3-5.6c-0.1-0.3,0-0.5,0.2-0.7L19.9,9l-5.8-0.5c-0.3,0-0.5-0.2-0.6-0.4l-2.3-5.4L9,8.1
		C8.9,8.3,8.7,8.5,8.4,8.5L2.6,9z"/>
</g>
</svg>
