<?xml version="1.0" encoding="iso-8859-1"?>
<!-- Generator: Adobe Illustrator 18.1.1, SVG Export Plug-In . SVG Version: 6.00 Build 0)  -->
<svg version="1.1" id="Layer_1" xmlns="http://www.w3.org/2000/svg" xmlns:xlink="http://www.w3.org/1999/xlink" x="0px" y="0px"
	 width="13.906px" height="14.602px" viewBox="0 0 13.906 14.602" style="enable-background:new 0 0 13.906 14.602;"
	 xml:space="preserve">
<g>
	<polygon style="fill:#FFFFFF;" points="13.406,10.72 3.163,10.72 0.5,14.102 0.5,0.5 13.406,0.5 	"/>
	<path style="fill:#808080;" d="M0.5,14.602c-0.055,0-0.11-0.009-0.164-0.027C0.135,14.505,0,14.315,0,14.102V0.5
		C0,0.224,0.224,0,0.5,0h12.906c0.276,0,0.5,0.224,0.5,0.5v10.22c0,0.276-0.224,0.5-0.5,0.5h-10l-2.514,3.191
		C0.796,14.534,0.65,14.602,0.5,14.602z M1,1v11.659l1.771-2.248C2.865,10.29,3.01,10.22,3.163,10.22h9.743V1H1z"/>
</g>
<polygon style="fill:#1473A3;" points="7.453,4.916 7.453,2.916 6.453,2.916 6.453,4.916 4.453,4.916 4.453,5.916 6.453,5.916 
	6.453,7.916 7.453,7.916 7.453,5.916 9.453,5.916 9.453,4.916 "/>
</svg>
