<?xml version="1.0" encoding="utf-8"?>
<!-- Generator: Adobe Illustrator 18.0.0, SVG Export Plug-In . SVG Version: 6.00 Build 0)  -->
<!DOCTYPE svg PUBLIC "-//W3C//DTD SVG 1.1//EN" "http://www.w3.org/Graphics/SVG/1.1/DTD/svg11.dtd">
<svg version="1.1" id="Layer_1" xmlns="http://www.w3.org/2000/svg" xmlns:xlink="http://www.w3.org/1999/xlink" x="0px" y="0px"
	 viewBox="0 0 30.3 31.1" enable-background="new 0 0 30.3 31.1" xml:space="preserve">
<g>
	<path fill="#81C677" d="M22.5,0c0.4,0.1,0.8,0.2,1.1,0.4c0.9,0.5,1.4,1.2,1.6,2.2c0.4,1.3,0.3,2.6,0,4c-0.4,1.6-1,3-1.9,4.3
		c0,0,0,0.1-0.1,0.1c-0.1,0.1-0.1,0.2-0.2,0.3c0.1,0,0.2,0.1,0.3,0.1c1.3,0.3,2.6,0.7,3.9,1.1c1.2,0.4,2.1,1.1,2.6,2.2
		c0.7,1.3,0.6,2.6-0.1,3.9c-0.4,0.8-1,1.4-1.7,1.9c-0.1,0.1-0.2,0.2-0.2,0.3c-0.7,2-1.5,3.9-2.4,5.8c-0.5,1-1,2-1.6,2.9
		c-0.4,0.5-0.8,1.1-1.4,1.3c-0.5,0.2-1,0.3-1.6,0.3c-1.5,0.1-3,0-4.5-0.2c-1.8-0.2-3.7-0.5-5.5-1c-1.1-0.3-2.2-0.6-3.2-1.2
		C7.2,28.4,7,28,7,27.3c0-1.6,0-3.2,0-4.8c0-2.7,0-5.3,0-8c0-0.6,0.2-1.1,0.7-1.5c1.5-1.2,3.1-2.2,4.8-3.2C13.9,9,15.2,8.1,16.3,7
		c0.7-0.7,1.5-1.4,1.9-2.4c0.3-0.6,0.4-1.3,0.7-2c0.3-0.9,0.7-1.7,1.6-2.2c0.3-0.2,0.7-0.3,1.1-0.4c0.1,0,0.1,0,0.2-0.1
		C22,0,22.3,0,22.5,0z M9.7,20.8c0,1.9,0,3.7,0,5.6c0,0.2,0.1,0.3,0.3,0.4c1,0.3,2,0.6,3,0.8c1.3,0.3,2.6,0.5,3.9,0.6
		c1.3,0.2,2.7,0.3,4.1,0.2c0.4,0,0.7-0.1,0.8-0.5c0.4-0.7,0.8-1.4,1.1-2.1c1-2.1,1.8-4.2,2.6-6.3c0.2-0.4,0.4-0.8,0.8-1
		c0.5-0.3,0.9-0.7,1.2-1.2c0.4-0.7,0.3-1.4-0.3-1.9c-0.3-0.2-0.6-0.4-0.9-0.5C25.1,14.5,24,14.3,23,14c-0.9-0.2-1.8-0.4-2.7-0.6
		c-1-0.3-1.3-1.4-0.6-2.3c0.4-0.5,0.9-1,1.2-1.6c1-1.4,1.7-2.9,1.9-4.6c0.1-0.7,0.1-1.3-0.2-1.9c-0.1-0.1-0.2-0.3-0.4-0.3
		c-0.2,0-0.4,0-0.5,0.3c-0.2,0.6-0.4,1.1-0.6,1.7c-0.2,0.6-0.4,1.2-0.8,1.8c-0.6,1-1.4,1.8-2.2,2.6c-1,0.9-2.1,1.8-3.2,2.5
		c-1.7,1-3.4,2-5,3.2c-0.2,0.1-0.2,0.2-0.2,0.4C9.7,17,9.7,18.9,9.7,20.8z"/>
	<path fill="#81C677" d="M0,13.8c0.1-0.6,0.4-1.1,0.9-1.5c0.7-0.5,1.5-0.6,2.2-0.3c0.8,0.3,1.2,0.9,1.3,1.7c0,0.2,0,0.3,0,0.5
		c0,4.4,0,8.8,0,13.2c0,0.9-0.3,1.6-1.1,2c-1.2,0.7-2.7,0.2-3.2-1.1C0.1,28.2,0.1,28,0,27.9C0,23.2,0,18.5,0,13.8z"/>
</g>
</svg>
