<?xml version="1.0" encoding="iso-8859-1"?>
<!-- Generator: Adobe Illustrator 18.1.1, SVG Export Plug-In . SVG Version: 6.00 Build 0)  -->
<svg version="1.1" id="Layer_1" xmlns="http://www.w3.org/2000/svg" xmlns:xlink="http://www.w3.org/1999/xlink" x="0px" y="0px"
	 width="20px" height="20px" viewBox="0 0 20 20" style="enable-background:new 0 0 20 20;" xml:space="preserve">
<g>
	<circle style="fill:#01ACED;" cx="10" cy="10" r="10"/>
	<path style="fill:#FFFFFF;" d="M16.401,6.029c-0.471,0.209-0.977,0.35-1.509,0.414c0.542-0.325,0.959-0.84,1.155-1.453
		c-0.508,0.301-1.07,0.52-1.668,0.637c-0.479-0.511-1.162-0.829-1.917-0.829c-1.451,0-2.627,1.176-2.627,2.626
		c0,0.206,0.023,0.406,0.068,0.598C7.721,7.913,5.785,6.868,4.49,5.279c-0.226,0.388-0.356,0.839-0.356,1.32
		c0,0.911,0.464,1.715,1.168,2.186c-0.43-0.014-0.835-0.132-1.19-0.328c0,0.011,0,0.022,0,0.033c0,1.273,0.906,2.334,2.107,2.575
		c-0.22,0.06-0.452,0.092-0.692,0.092c-0.169,0-0.333-0.016-0.494-0.047c0.334,1.043,1.305,1.803,2.454,1.824
		c-0.899,0.705-2.031,1.124-3.262,1.124c-0.212,0-0.421-0.012-0.626-0.037c1.162,0.746,2.543,1.18,4.026,1.18
		c4.831,0,7.473-4.002,7.473-7.473c0-0.114-0.002-0.227-0.008-0.34C15.604,7.019,16.049,6.556,16.401,6.029z"/>
</g>
</svg>
