<?xml version="1.0" encoding="iso-8859-1"?>
<!-- Generator: Adobe Illustrator 18.1.1, SVG Export Plug-In . SVG Version: 6.00 Build 0)  -->
<svg version="1.1" id="Layer_1" xmlns="http://www.w3.org/2000/svg" xmlns:xlink="http://www.w3.org/1999/xlink" x="0px" y="0px"
	 width="15.29px" height="12.426px" viewBox="0 0 15.29 12.426" style="enable-background:new 0 0 15.29 12.426;"
	 xml:space="preserve">
<path style="fill:#FFFFFF;" d="M15.29,1.471c-0.563,0.25-1.167,0.418-1.802,0.494c0.648-0.388,1.145-1.003,1.38-1.736
	c-0.606,0.359-1.278,0.62-1.992,0.761C12.304,0.381,11.488,0,10.586,0C8.854,0,7.449,1.404,7.449,3.137
	c0,0.246,0.028,0.485,0.081,0.715c-2.607-0.131-4.919-1.38-6.466-3.278c-0.27,0.463-0.425,1.002-0.425,1.577
	c0,1.088,0.554,2.048,1.396,2.611C1.521,4.746,1.037,4.605,0.614,4.37c0,0.013,0,0.026,0,0.039c0,1.52,1.082,2.788,2.516,3.076
	c-0.263,0.072-0.54,0.11-0.826,0.11c-0.202,0-0.398-0.02-0.59-0.056c0.399,1.246,1.558,2.153,2.931,2.178
	c-1.074,0.842-2.426,1.343-3.896,1.343c-0.253,0-0.503-0.015-0.748-0.044c1.388,0.89,3.037,1.41,4.809,1.41
	c5.77,0,8.925-4.78,8.925-8.926c0-0.136-0.003-0.271-0.009-0.406C14.338,2.653,14.87,2.1,15.29,1.471z"/>
</svg>
