<?xml version="1.0" encoding="utf-8"?>
<!-- Generator: Adobe Illustrator 18.0.0, SVG Export Plug-In . SVG Version: 6.00 Build 0)  -->
<!DOCTYPE svg PUBLIC "-//W3C//DTD SVG 1.1//EN" "http://www.w3.org/Graphics/SVG/1.1/DTD/svg11.dtd">
<svg version="1.1" id="Layer_1" xmlns="http://www.w3.org/2000/svg" xmlns:xlink="http://www.w3.org/1999/xlink" x="0px" y="0px"
	 viewBox="0 0 20.9 33" enable-background="new 0 0 20.9 33" xml:space="preserve">
<g>
	<path fill="#F8BE58" d="M20.9,9.1c0-3.1-1-5.3-3.1-6.8C15.7,0.7,13.2,0,10.1,0c-2.4,0-4.4,0.5-6,1.5c-2.6,1.7-4,4.6-4.1,8.6v0.2
		h6.3v-0.2C6.3,9.1,6.6,8,7.2,7C7.8,6,8.8,5.5,10.3,5.5c1.5,0,2.5,0.4,3,1.2c0.6,0.7,0.9,1.7,0.9,2.6c0,0.7-0.3,1.5-0.9,2.4
		c-0.3,0.5-0.7,0.8-1.1,1.2C12,13,8.9,15,7.6,16.6c-0.8,1.1-0.9,2.4-1,4.6v0.5h6.2v-0.2c0-1.1,0.1-1.2,0.2-1.7
		c0.2-0.7,0.7-1.4,1.6-2.1l1.6-1.1c1.5-1.2,2.6-2.1,3.2-2.9C20.4,12.3,20.9,10.7,20.9,9.1z"/>
	<path fill="#F8BE58" d="M13.8,29.1c0.1-2.4-1.5-4-3.8-4H9.9c-2.2,0-3.8,1.5-3.9,3.8c0,2.4,1.6,4,3.8,4.1h0.1
		C12.2,33,13.8,31.3,13.8,29.1z"/>
</g>
</svg>
