<?xml version="1.0" encoding="iso-8859-1"?>
<!-- Generator: Adobe Illustrator 18.1.1, SVG Export Plug-In . SVG Version: 6.00 Build 0)  -->
<svg version="1.1" id="Layer_1" xmlns="http://www.w3.org/2000/svg" xmlns:xlink="http://www.w3.org/1999/xlink" x="0px" y="0px"
	 width="15px" height="15px" viewBox="0 0 15 15" style="enable-background:new 0 0 15 15;" xml:space="preserve">
<g>
	<g>
		<g>
			<circle style="fill:#F4F4F4;" cx="7.5" cy="7.5" r="6"/>
		</g>
		<g>
			<g>
				<path style="fill:#EBEBEB;" d="M7.5,14.5c-3.859,0-7-3.141-7-7s3.141-7,7-7s7,3.141,7,7S11.359,14.5,7.5,14.5z M7.5,2.5
					c-2.757,0-5,2.243-5,5s2.243,5,5,5s5-2.243,5-5S10.257,2.5,7.5,2.5z"/>
			</g>
			<g>
				<path style="fill:#FFFFFF;" d="M7.5,1C11.084,1,14,3.916,14,7.5S11.084,14,7.5,14S1,11.084,1,7.5S3.916,1,7.5,1 M7.5,13 M7.5,0
					C3.364,0,0,3.365,0,7.5S3.364,15,7.5,15S15,11.635,15,7.5S11.636,0,7.5,0L7.5,0z"/>
			</g>
		</g>
	</g>
</g>
<g>
	<path style="fill:#808080;" d="M7.5,13c3.032,0,5.5-2.468,5.5-5.5S10.532,2,7.5,2S2,4.468,2,7.5S4.468,13,7.5,13"/>
</g>
<g>
	<polygon style="fill:#FFFFFF;" points="6.514,10.252 4.132,7.871 5.193,6.81 6.566,8.183 9.835,5.227 10.84,6.339 	"/>
</g>
</svg>
