<?xml version="1.0" encoding="iso-8859-1"?>
<!-- Generator: Adobe Illustrator 18.1.1, SVG Export Plug-In . SVG Version: 6.00 Build 0)  -->
<svg version="1.1" id="Layer_1" xmlns="http://www.w3.org/2000/svg" xmlns:xlink="http://www.w3.org/1999/xlink" x="0px" y="0px"
	 width="13px" height="13px" viewBox="0 0 13 13" style="enable-background:new 0 0 13 13;" xml:space="preserve">
<g>
	<g>
		<circle style="fill:#F4F4F4;" cx="6.5" cy="6.5" r="6"/>
		<g>
			<path style="fill:#EBEBEB;" d="M6.5,1.5c-2.757,0-5,2.243-5,5s2.243,5,5,5s5-2.243,5-5S9.257,1.5,6.5,1.5z"/>
			<path style="opacity:0.3;fill:#808080;" d="M6.5,0C10.084,0,13,2.916,13,6.5S10.084,13,6.5,13S0,10.084,0,6.5S2.916,0,6.5,0
				 M6.5,12"/>
		</g>
	</g>
</g>
<path style="fill:#808080;" d="M6.5,12C9.532,12,12,9.532,12,6.5S9.532,1,6.5,1S1,3.468,1,6.5S3.468,12,6.5,12"/>
<polyline style="fill:none;stroke:#FFFFFF;stroke-width:1.5;stroke-miterlimit:10;" points="9.337,4.783 5.539,8.218 3.663,6.341 
	"/>
</svg>
